<svg width="112" height="106" viewBox="0 0 112 106" fill="none" xmlns="http://www.w3.org/2000/svg">
<path d="M72.7338 26.0881C73.2708 24.6372 75.323 24.6372 75.8599 26.0881L78.0826 32.0941C78.2514 32.5503 78.6111 32.9099 79.0672 33.0787L85.0733 35.3014C86.5242 35.8384 86.5242 37.8906 85.0733 38.4276L79.0672 40.6503C78.6111 40.8191 78.2514 41.1787 78.0826 41.6349L75.8599 47.6409C75.323 49.0918 73.2708 49.0919 72.7338 47.6409L70.5111 41.6349C70.3423 41.1787 69.9827 40.8191 69.5265 40.6503L63.5205 38.4276C62.0695 37.8906 62.0695 35.8384 63.5205 35.3014L69.5265 33.0787C69.9827 32.9099 70.3423 32.5503 70.5111 32.0941L72.7338 26.0881Z" fill="#DCE8FF"/>
<path d="M72.7338 70.3381C73.2708 68.8872 75.323 68.8872 75.8599 70.3381L76.462 71.9648C76.6308 72.421 76.9904 72.7806 77.4466 72.9494L79.0733 73.5514C80.5242 74.0884 80.5242 76.1406 79.0733 76.6776L77.4466 77.2796C76.9904 77.4484 76.6308 77.808 76.462 78.2642L75.8599 79.8909C75.323 81.3419 73.2708 81.3419 72.7338 79.8909L72.1318 78.2642C71.963 77.808 71.6033 77.4484 71.1472 77.2796L69.5205 76.6776C68.0695 76.1406 68.0695 74.0884 69.5205 73.5514L71.1472 72.9494C71.6033 72.7806 71.963 72.421 72.1318 71.9648L72.7338 70.3381Z" fill="#DCE8FF"/>
<path d="M40.4523 40.1999C41.2577 38.0235 44.336 38.0235 45.1415 40.1999L48.4755 49.2089C48.7287 49.8932 49.2682 50.4326 49.9524 50.6859L58.9615 54.0199C61.1379 54.8254 61.1379 57.9037 58.9615 58.7091L49.9524 62.0431C49.2682 62.2964 48.7287 62.8358 48.4755 63.5201L45.1415 72.5291C44.336 74.7055 41.2577 74.7055 40.4523 72.5291L37.1182 63.5201C36.865 62.8358 36.3255 62.2964 35.6413 62.0431L26.6323 58.7091C24.4559 57.9037 24.4559 54.8254 26.6323 54.0199L35.6413 50.6859C36.3255 50.4326 36.865 49.8932 37.1182 49.2089L40.4523 40.1999Z" fill="#DCE8FF"/>
<g filter="url(#filter0_f_1_933)">
<path d="M72.7338 26.0881C73.2708 24.6372 75.323 24.6372 75.8599 26.0881L78.0826 32.0941C78.2514 32.5503 78.6111 32.9099 79.0672 33.0787L85.0733 35.3014C86.5242 35.8384 86.5242 37.8906 85.0733 38.4276L79.0672 40.6503C78.6111 40.8191 78.2514 41.1787 78.0826 41.6349L75.8599 47.6409C75.323 49.0918 73.2708 49.0919 72.7338 47.6409L70.5111 41.6349C70.3423 41.1787 69.9827 40.8191 69.5265 40.6503L63.5205 38.4276C62.0695 37.8906 62.0695 35.8384 63.5205 35.3014L69.5265 33.0787C69.9827 32.9099 70.3423 32.5503 70.5111 32.0941L72.7338 26.0881Z" fill="#DCE8FF"/>
<path d="M72.7338 70.3381C73.2708 68.8872 75.323 68.8872 75.8599 70.3381L76.462 71.9648C76.6308 72.421 76.9904 72.7806 77.4466 72.9494L79.0733 73.5514C80.5242 74.0884 80.5242 76.1406 79.0733 76.6776L77.4466 77.2796C76.9904 77.4484 76.6308 77.808 76.462 78.2642L75.8599 79.8909C75.323 81.3419 73.2708 81.3419 72.7338 79.8909L72.1318 78.2642C71.963 77.808 71.6033 77.4484 71.1472 77.2796L69.5205 76.6776C68.0695 76.1406 68.0695 74.0884 69.5205 73.5514L71.1472 72.9494C71.6033 72.7806 71.963 72.421 72.1318 71.9648L72.7338 70.3381Z" fill="#DCE8FF"/>
<path d="M40.4523 40.1999C41.2577 38.0235 44.336 38.0235 45.1415 40.1999L48.4755 49.2089C48.7287 49.8932 49.2682 50.4326 49.9524 50.6859L58.9615 54.0199C61.1379 54.8254 61.1379 57.9037 58.9615 58.7091L49.9524 62.0431C49.2682 62.2964 48.7287 62.8358 48.4755 63.5201L45.1415 72.5291C44.336 74.7055 41.2577 74.7055 40.4523 72.5291L37.1182 63.5201C36.865 62.8358 36.3255 62.2964 35.6413 62.0431L26.6323 58.7091C24.4559 57.9037 24.4559 54.8254 26.6323 54.0199L35.6413 50.6859C36.3255 50.4326 36.865 49.8932 37.1182 49.2089L40.4523 40.1999Z" fill="#DCE8FF"/>
</g>
<defs>
<filter id="filter0_f_1_933" x="0" y="0" width="111.161" height="105.979" filterUnits="userSpaceOnUse" color-interpolation-filters="sRGB">
<feFlood flood-opacity="0" result="BackgroundImageFix"/>
<feBlend mode="normal" in="SourceGraphic" in2="BackgroundImageFix" result="shape"/>
<feGaussianBlur stdDeviation="12.5" result="effect1_foregroundBlur_1_933"/>
</filter>
</defs>
</svg>
