<svg width="24" height="20" viewBox="0 0 24 20" fill="none" xmlns="http://www.w3.org/2000/svg">
<path d="M0 14.8031C0 16.8562 1.08409 17.9307 3.15634 17.9307H13.1626C12.8076 17.3551 12.5582 16.7027 12.4431 16.0216H3.14675C2.35047 16.0216 1.90916 15.609 1.90916 14.7648V5.93853C1.90916 5.09428 2.35047 4.68175 3.14675 4.68175H16.3765C17.1728 4.68175 17.6141 5.09428 17.6141 5.93853V8.50965C17.9499 8.45209 18.2665 8.42331 18.5831 8.42331C18.8997 8.42331 19.2163 8.45209 19.5329 8.50006V3.12756C19.5329 1.0745 18.4488 0 16.3669 0H3.15634C1.08409 0 0 1.06491 0 3.12756V14.8031ZM7.91484 7.99159H8.48087C8.82624 7.99159 8.94137 7.88606 8.94137 7.55028V6.98425C8.94137 6.63887 8.82624 6.53334 8.48087 6.53334H7.91484C7.56946 6.53334 7.45434 6.63887 7.45434 6.98425V7.55028C7.45434 7.88606 7.56946 7.99159 7.91484 7.99159ZM11.052 7.99159H11.618C11.9538 7.99159 12.0689 7.88606 12.0689 7.55028V6.98425C12.0689 6.63887 11.9538 6.53334 11.618 6.53334H11.052C10.7066 6.53334 10.5915 6.63887 10.5915 6.98425V7.55028C10.5915 7.88606 10.7066 7.99159 11.052 7.99159ZM14.1796 7.99159H14.7456C15.091 7.99159 15.2061 7.88606 15.2061 7.55028V6.98425C15.2061 6.63887 15.091 6.53334 14.7456 6.53334H14.1796C13.8438 6.53334 13.7286 6.63887 13.7286 6.98425V7.55028C13.7286 7.88606 13.8438 7.99159 14.1796 7.99159ZM4.78728 11.0808H5.34372C5.68909 11.0808 5.80422 10.9752 5.80422 10.6299V10.0638C5.80422 9.72806 5.68909 9.62253 5.34372 9.62253H4.78728C4.4419 9.62253 4.32678 9.72806 4.32678 10.0638V10.6299C4.32678 10.9752 4.4419 11.0808 4.78728 11.0808ZM7.91484 11.0808H8.48087C8.82624 11.0808 8.94137 10.9752 8.94137 10.6299V10.0638C8.94137 9.72806 8.82624 9.62253 8.48087 9.62253H7.91484C7.56946 9.62253 7.45434 9.72806 7.45434 10.0638V10.6299C7.45434 10.9752 7.56946 11.0808 7.91484 11.0808ZM11.052 11.0808H11.618C11.9538 11.0808 12.0689 10.9752 12.0689 10.6299V10.0638C12.0689 9.72806 11.9538 9.62253 11.618 9.62253H11.052C10.7066 9.62253 10.5915 9.72806 10.5915 10.0638V10.6299C10.5915 10.9752 10.7066 11.0808 11.052 11.0808ZM18.5831 19.6768C21.2693 19.6768 23.5335 17.4318 23.5335 14.7264C23.5335 12.021 21.2981 9.78562 18.5831 9.78562C15.8776 9.78562 13.6423 12.021 13.6423 14.7264C13.6423 17.4414 15.8776 19.6768 18.5831 19.6768ZM16.2998 15.5515C15.916 15.5515 15.6186 15.2445 15.6186 14.8703C15.6186 14.5057 15.9256 14.2083 16.2998 14.2083H17.9691V11.9634C17.9691 11.5892 18.2665 11.3014 18.6406 11.3014C19.0148 11.3014 19.3218 11.5892 19.3218 11.9634V14.8703C19.3218 15.2541 19.0244 15.5515 18.6406 15.5515H16.2998ZM4.78728 14.1604H5.34372C5.68909 14.1604 5.80422 14.0548 5.80422 13.7191V13.153C5.80422 12.8076 5.68909 12.7021 5.34372 12.7021H4.78728C4.4419 12.7021 4.32678 12.8076 4.32678 13.153V13.7191C4.32678 14.0548 4.4419 14.1604 4.78728 14.1604ZM7.91484 14.1604H8.48087C8.82624 14.1604 8.94137 14.0548 8.94137 13.7191V13.153C8.94137 12.8076 8.82624 12.7021 8.48087 12.7021H7.91484C7.56946 12.7021 7.45434 12.8076 7.45434 13.153V13.7191C7.45434 14.0548 7.56946 14.1604 7.91484 14.1604ZM11.052 14.1604H11.618C11.9538 14.1604 12.0689 14.0548 12.0689 13.7191V13.153C12.0689 12.8076 11.9538 12.7021 11.618 12.7021H11.052C10.7066 12.7021 10.5915 12.8076 10.5915 13.153V13.7191C10.5915 14.0548 10.7066 14.1604 11.052 14.1604Z" fill="#DCE8FF"/>
</svg>
