<svg width="20" height="20" viewBox="0 0 20 20" fill="none" xmlns="http://www.w3.org/2000/svg">
<path d="M9.91993 19.8399C15.3596 19.8399 19.8495 15.35 19.8495 9.91993C19.8495 4.48987 15.35 0 9.91034 0C4.48028 0 0 4.48987 0 9.91993C0 15.35 4.48987 19.8399 9.91993 19.8399ZM5.08468 11.1287C4.65297 11.1287 4.31718 10.793 4.31718 10.3612C4.31718 9.92952 4.65297 9.59374 5.08468 9.59374H9.15243V4.08693C9.15243 3.65522 9.48821 3.31944 9.91034 3.31944C10.3516 3.31944 10.6874 3.65522 10.6874 4.08693V10.3612C10.6874 10.793 10.3516 11.1287 9.91034 11.1287H5.08468Z" fill="#DCE8FF"/>
</svg>
