<svg width="19" height="23" viewBox="0 0 19 23" fill="none" xmlns="http://www.w3.org/2000/svg">
<path d="M10.5298 0.296207C9.91599 -0.094564 9.07281 -0.100433 8.45468 0.288949C5.81426 1.95222 3.4216 3.8579 1.32661 5.96938C1.04724 6.25094 0.862373 6.64502 0.865537 7.09546C0.86869 7.54435 1.05776 7.93405 1.33621 8.21174C3.41433 10.2843 5.80969 12.1922 8.40211 13.8425C9.01596 14.2333 9.85913 14.2392 10.4773 13.8498C13.1177 12.1865 15.5104 10.2808 17.6053 8.16937C17.8847 7.88781 18.0696 7.49373 18.0664 7.04329C18.0633 6.5944 17.8742 6.2047 17.5957 5.92701C15.5176 3.85446 13.1223 1.94653 10.5298 0.296207Z" fill="#DCE8FF"/>
<path d="M18.6386 12.9724C18.9984 12.6984 19.108 12.1206 18.8834 11.6818C18.6587 11.2429 18.185 11.1093 17.8252 11.3833L11.5717 16.1454C11.0146 16.5696 10.2578 16.8061 9.46579 16.8061C8.67382 16.8062 7.91691 16.5698 7.35973 16.1456L1.17467 11.4374C0.814858 11.1635 0.34113 11.2973 0.116572 11.7361C-0.107987 12.175 0.00165899 12.7528 0.361473 13.0267L6.54653 17.7349C7.39525 18.381 8.44813 18.6796 9.46588 18.6796C10.4836 18.6795 11.5365 18.3807 12.3851 17.7345L18.6386 12.9724Z" fill="#DCE8FF"/>
<path d="M18.6387 17.6618C18.9985 17.3878 19.108 16.8099 18.8833 16.3711C18.6587 15.9323 18.1849 15.7988 17.8251 16.0728L12.4095 20.1979C11.6181 20.8007 10.5595 21.1265 9.46575 21.1266C8.37196 21.1267 7.31326 20.801 6.52173 20.1983L1.17475 16.1269C0.814964 15.853 0.341222 15.9867 0.11662 16.4255C-0.107982 16.8643 0.0016076 17.4422 0.361395 17.7161L5.70837 21.7875C6.7915 22.6122 8.14625 23.0001 9.46584 23C10.7854 22.9999 12.1401 22.6118 13.2231 21.7869L18.6387 17.6618Z" fill="#DCE8FF"/>
</svg>
