<svg width="20" height="17" viewBox="0 0 20 17" fill="none" xmlns="http://www.w3.org/2000/svg">
<path d="M0.853843 1.70769H18.9668C19.4465 1.70769 19.8303 1.33353 19.8303 0.853843C19.8303 0.38375 19.4465 0 18.9668 0H0.853843C0.374156 0 0 0.38375 0 0.853843C0 1.33353 0.374156 1.70769 0.853843 1.70769ZM0.853843 6.73481H11.6084C12.0881 6.73481 12.4719 6.36065 12.4719 5.88096C12.4719 5.40128 12.0881 5.02712 11.6084 5.02712H0.853843C0.374156 5.02712 0 5.40128 0 5.88096C0 6.36065 0.374156 6.73481 0.853843 6.73481ZM0.853843 11.7619H18.9668C19.4465 11.7619 19.8303 11.3878 19.8303 10.9081C19.8303 10.4284 19.4465 10.0542 18.9668 10.0542H0.853843C0.374156 10.0542 0 10.4284 0 10.9081C0 11.3878 0.374156 11.7619 0.853843 11.7619ZM0.853843 16.7891H11.6084C12.0881 16.7891 12.4719 16.4053 12.4719 15.9352C12.4719 15.4555 12.0881 15.0814 11.6084 15.0814H0.853843C0.374156 15.0814 0 15.4555 0 15.9352C0 16.4053 0.374156 16.7891 0.853843 16.7891Z" fill="#DCE8FF"/>
</svg>
