<svg width="16" height="16" viewBox="0 0 16 16" fill="none" xmlns="http://www.w3.org/2000/svg">
<path d="M15 10.5C15.552 10.5 16 10.948 16 11.5V13C16 14.6545 14.6545 16 13 16H3C1.3455 16 0 14.6545 0 13V11.5C6.57901e-06 10.948 0.448003 10.5 1 10.5C1.55199 10.5 1.99999 10.948 2 11.5V13C2 13.5515 2.4485 14 3 14H13C13.5515 14 14 13.5515 14 13V11.5C14 10.948 14.448 10.5 15 10.5Z" fill="white"/>
<path d="M8 0C8.25595 3.83021e-05 8.51207 0.0975068 8.70703 0.292969L12.1562 3.74284C12.5467 4.13334 12.5467 4.76641 12.1562 5.1569C11.7662 5.54721 11.1321 5.5473 10.7422 5.1569L9 3.41406V11.4499C8.99989 12.0017 8.55186 12.4498 8 12.4499C7.44807 12.4499 7.00011 12.0018 7 11.4499V3.41406L5.25716 5.1569C4.86714 5.54719 4.23303 5.54733 3.8431 5.1569C3.45267 4.76647 3.45281 4.13336 3.8431 3.74284L7.29297 0.292969C7.48795 0.0975671 7.74406 0 8 0Z" fill="white"/>
</svg>
